<?xml version="1.0" standalone="no"?>
<!DOCTYPE svg PUBLIC "-//W3C//DTD SVG 20010904//EN"
 "http://www.w3.org/TR/2001/REC-SVG-20010904/DTD/svg10.dtd">
<svg version="1.0" xmlns="http://www.w3.org/2000/svg"
 width="700.000000pt" height="700.000000pt" viewBox="0 0 700.000000 700.000000"
 preserveAspectRatio="xMidYMid meet">
<metadata>
Created by potrace 1.11, written by Peter Selinger 2001-2013
</metadata>
<g transform="translate(0.000000,700.000000) scale(0.100000,-0.100000)"
fill="#000000" stroke="none">
<path d="M0 6485 l0 -435 435 0 435 0 0 -2550 0 -2550 -435 0 -435 0 0 -435 0
-435 2598 1 c1428 0 2630 5 2670 9 502 59 917 274 1252 649 217 243 377 566
440 885 50 250 48 557 -4 794 -65 296 -219 608 -411 832 -53 62 -236 240 -247
240 -5 0 46 55 114 123 180 177 301 346 398 552 81 170 135 338 160 495 7 41
14 84 17 95 9 40 11 372 2 445 -38 309 -138 589 -301 841 -81 123 -136 192
-251 308 -283 286 -621 464 -1036 543 l-116 23 -2642 3 -2643 2 0 -435z m4408
-455 c267 -54 491 -197 655 -419 91 -124 173 -333 193 -491 23 -196 -15 -419
-103 -594 -64 -127 -94 -168 -213 -286 -118 -119 -244 -197 -401 -250 -156
-53 -151 -53 -1071 -54 -472 -1 -859 1 -859 4 -1 3 -2 479 -3 1058 l-1 1052
855 0 c796 -1 861 -2 948 -20z m-53 -2975 c72 -11 65 -9 90 -18 11 -3 31 -8
45 -11 60 -10 223 -85 295 -134 305 -211 476 -526 476 -877 0 -205 -46 -374
-149 -548 -145 -243 -365 -406 -660 -490 -76 -21 -89 -22 -962 -25 l-885 -3 1
1048 c1 576 2 1053 3 1058 1 13 1658 13 1746 0z"/>
</g>
</svg>
